HIERARCHY
ROOT hip
{
	OFFSET 0.000000 0.000000 0.000000 
	CHANNELS 6 Xposition Yposition Zposition Xrotation Zrotation Yrotation
	JOINT abdomen
	{
		OFFSET 0.000000 3.402643 0.000000 
		CHANNELS 3 Xrotation Zrotation Yrotation
		JOINT chest
		{
			OFFSET 0.000000 8.438565 -0.680529 
			CHANNELS 3 Xrotation Zrotation Yrotation
			JOINT neck
			{
				OFFSET 0.000000 10.207942 -0.272212 
				CHANNELS 3 Xrotation Zrotation Yrotation
				JOINT head
				{
					OFFSET 0.000000 3.130431 0.000000 
					CHANNELS 3 Xrotation Zrotation Yrotation
					End Site
					{
						OFFSET 0.000000 3.130435 0.000000 
					}
				}
			}
			JOINT lCollar
			{
				OFFSET 3.470700 6.669187 -0.816635 
				CHANNELS 3 Yrotation Zrotation Xrotation
				JOINT lShldr
				{
					OFFSET 3.198488 0.000000 0.000000 
					CHANNELS 3 Zrotation Yrotation Xrotation
					JOINT lForeArm
					{
						OFFSET 10.139888 0.000000 0.000000 
						CHANNELS 3 Yrotation Zrotation Xrotation
						JOINT lHand
						{
							OFFSET 8.370511 0.000000 0.000000 
							CHANNELS 3 Zrotation Yrotation Xrotation
							End Site
							{
								OFFSET 4.083176 0.000000 0.000000 
							}
						}
					}
				}
			}
			JOINT rCollar
			{
				OFFSET -3.470700 6.669187 -0.816635 
				CHANNELS 3 Yrotation Zrotation Xrotation
				JOINT rShldr
				{
					OFFSET -3.198488 0.000000 0.000000 
					CHANNELS 3 Zrotation Yrotation Xrotation
					JOINT rForeArm
					{
						OFFSET -10.139888 0.000000 0.000000 
						CHANNELS 3 Yrotation Zrotation Xrotation
						JOINT rHand
						{
							OFFSET -8.370511 0.000000 0.000000 
							CHANNELS 3 Zrotation Yrotation Xrotation
							End Site
							{
								OFFSET -4.083176 0.000000 0.000000 
							}
						}
					}
				}
			}
		}
	}
	JOINT lThigh
	{
		OFFSET 5.308129 -1.633274 1.361059 
		CHANNELS 3 Xrotation Zrotation Yrotation
		JOINT lShin
		{
			OFFSET -2.041588 -20.007561 0.000000 
			CHANNELS 3 Xrotation Zrotation Yrotation
			JOINT lFoot
			{
				OFFSET 0.000000 -19.190928 -1.224953 
				CHANNELS 3 Xrotation Yrotation Zrotation
				End Site
				{
					OFFSET 0.000000 -2.449906 4.627600 
				}
			}
		}
	}
	JOINT rThigh
	{
		OFFSET -5.308129 -1.633274 1.361059 
		CHANNELS 3 Xrotation Zrotation Yrotation
		JOINT rShin
		{
			OFFSET 2.041588 -20.007561 0.000000 
			CHANNELS 3 Xrotation Zrotation Yrotation
			JOINT rFoot
			{
				OFFSET 0.000000 -19.190928 -1.224953 
				CHANNELS 3 Xrotation Yrotation Zrotation
				End Site
				{
					OFFSET 0.000000 -2.449906 4.627600 
				}
			}
		}
	}
}
MOTION
Frames: 15
Frame Time: 0.011111
1.275395 52.715244 7.850548 -3.595477 1.534545 -4.225595 25.214172 -4.182203 1.454720 -22.032187 -0.540481 0.730104 -10.427844 -6.314608 -2.774661 30.224922 10.379733 -4.479468 2.424333 -4.683778 1.783845 -66.772217 -30.284365 6.154078 -44.970875 6.372792 6.193058 8.524705 12.647240 -55.999401 -2.738486 -1.140572 2.095526 65.609840 33.089615 54.617985 90.572090 -6.227094 35.509785 -8.534408 -12.637552 59.515480 10.697502 8.002255 -8.081042 8.343822 -6.002489 -1.893197 -21.140562 13.782330 1.905609 10.564166 -12.259694 14.597219 8.524441 5.983392 1.917703 -24.146114 -16.513889 -3.751481 
1.278101 52.716145 7.855358 -3.575939 1.582890 -4.257354 25.146761 -4.279820 1.489562 -21.963804 -0.550201 0.749421 -10.544385 -6.269775 -2.757501 30.239143 10.408399 -4.439757 2.424333 -4.683778 1.783845 -66.762474 -30.294279 6.163583 -44.991096 6.376959 6.202687 8.524705 12.647240 -56.175182 -2.738486 -1.140572 2.095526 65.604584 33.294815 54.529766 90.572090 -6.227094 35.509785 -8.534408 -12.637552 58.275249 10.688417 7.944193 -8.089983 8.329423 -6.005838 -1.891553 -21.132383 13.817639 1.914451 10.507138 -12.330942 14.618647 8.548962 5.999965 1.911589 -24.168924 -16.497295 -3.743620 
1.280807 52.716145 7.853554 -3.546752 1.633196 -4.269310 25.108292 -4.348711 1.505357 -21.934475 -0.569648 0.759790 -10.523500 -6.242676 -2.725360 30.061001 10.504232 -4.356627 2.424333 -4.683778 1.783845 -66.742615 -30.294569 6.163066 -44.939945 6.363679 6.183856 8.524705 12.647240 -56.243542 -2.738486 -1.140572 2.095526 65.569733 33.520031 54.504509 90.564217 -6.220808 35.509369 -8.534408 -12.637552 57.210796 10.667338 7.904488 -8.095671 8.300308 -5.996053 -1.888374 -21.130920 13.805147 1.895759 10.435460 -12.375082 14.633257 8.575068 5.996641 1.914113 -24.183519 -16.507008 -3.765490 
1.279605 52.717651 7.849946 -3.546718 1.613702 -4.268102 25.127251 -4.333992 1.522433 -21.973515 -0.578430 0.770387 -10.543643 -6.295774 -2.683192 30.005793 10.668644 -4.239976 2.424333 -4.683778 1.783845 -66.732292 -30.275188 5.957730 -44.806183 6.320278 6.123795 8.524705 12.647240 -56.556042 -2.738486 -1.140572 2.095526 65.484100 33.716763 54.540573 90.572090 -6.227094 35.509785 -8.534408 -12.637552 56.204941 10.698811 7.944788 -8.109886 8.221640 -6.005582 -1.862347 -21.113342 13.811222 1.910131 10.420478 -12.333543 14.639049 8.620560 5.982317 1.916732 -24.183838 -16.514153 -3.747180 
1.280206 52.715847 7.852953 -3.575683 1.588984 -4.316442 25.136515 -4.333177 1.543889 -21.934441 -0.588711 0.770440 -10.711679 -6.352279 -2.660545 30.161587 10.809145 -4.178383 2.424333 -4.683778 1.783845 -66.742027 -30.265278 5.889631 -44.673008 6.284104 6.079469 8.524705 12.647240 -56.390026 -2.738486 -1.140572 2.095526 65.379326 33.952869 54.556435 90.598824 -6.244989 35.530418 -8.534408 -12.637552 55.130718 10.761692 7.958141 -8.079200 8.203933 -5.996947 -1.851382 -21.131586 13.796765 1.912936 10.435306 -12.316237 14.701504 8.630742 5.984785 1.917749 -24.169313 -16.496698 -3.743234 
1.284717 52.713139 7.852953 -3.604436 1.552017 -4.403130 25.164724 -4.312079 1.593307 -21.953978 -0.578242 0.779945 -10.769903 -6.349210 -2.623508 30.156296 10.826473 -4.117392 2.424333 -4.683778 1.783845 -66.800270 -30.196047 6.145092 -44.673008 6.284104 6.079469 8.524705 12.647240 -55.813854 -2.738486 -1.140572 2.095526 65.253792 34.159996 54.600929 90.623589 -6.263662 35.540329 -8.534408 -12.637552 54.095562 10.803402 7.953025 -8.009732 8.209495 -6.005994 -1.851775 -21.177509 13.771118 1.926988 10.448561 -12.312779 14.782142 8.608151 5.982751 1.925647 -24.107367 -16.505026 -3.727139 
1.284717 52.713444 7.841525 -3.633624 1.530276 -4.402686 25.263367 -4.301508 1.589903 -22.051714 -0.518385 0.778126 -10.690109 -6.319725 -2.599717 29.974449 10.843065 -4.052281 2.424333 -4.683778 1.783845 -66.878563 -30.136288 6.117865 -44.693218 6.288365 6.089032 8.524705 12.647240 -56.194714 -2.738486 -1.140572 2.095526 65.088333 34.377510 54.630070 90.648392 -6.282284 35.551304 -8.534408 -12.637552 53.167828 10.814262 7.973131 -7.996959 8.235966 -6.002125 -1.873732 -21.232588 13.775032 1.938006 10.485918 -12.288935 14.783992 8.609153 5.981289 1.925550 -24.103611 -16.532190 -3.734066 
1.281408 52.712242 7.827090 -3.653595 1.544741 -4.306372 25.343668 -4.324899 1.508914 -22.061533 -0.489928 0.757298 -10.776558 -6.260175 -2.569488 29.950459 10.858757 -3.992352 2.424333 -4.683778 1.783845 -66.900177 -30.223867 5.649625 -44.631615 6.269221 6.063281 8.524705 12.647240 -57.561905 -2.738486 -1.140572 2.095526 64.995537 34.701298 54.577950 90.674332 -6.300741 35.572002 -8.534408 -12.637552 52.327984 10.784714 7.992234 -8.112742 8.289034 -5.994997 -1.887453 -21.242399 13.822230 1.945889 10.536581 -12.283718 14.684463 8.578099 5.991901 1.923528 -24.108824 -16.545883 -3.731033 
1.282011 52.709831 7.823179 -3.643993 1.547336 -4.276871 25.314621 -4.339432 1.494420 -22.012678 -0.510083 0.757802 -10.911816 -6.208338 -2.511681 30.023470 10.967690 -3.844550 2.424333 -4.683778 1.783845 -66.900368 -30.233635 5.434781 -44.642097 6.274833 6.071465 8.524705 12.647240 -58.401745 -2.738486 -1.140572 2.095526 64.972755 35.014217 54.465378 90.702278 -6.317632 35.591553 -8.534408 -12.637552 51.556499 10.735677 7.992074 -8.161994 8.354768 -6.003333 -1.913594 -21.271523 13.808692 1.952978 10.544798 -12.290547 14.662874 8.563841 5.995664 1.912173 -24.104603 -16.512985 -3.721251 
1.280206 52.711037 7.812956 -3.653481 1.505136 -4.313630 25.352947 -4.326478 1.540390 -22.090807 -0.498821 0.767777 -10.852586 -6.250905 -2.441682 29.858046 11.199100 -3.662651 2.424333 -4.683778 1.783845 -66.928604 -30.155073 5.318376 -44.590981 6.261258 6.053930 8.524705 12.647240 -58.714245 -2.738486 -1.140572 2.095526 64.888863 35.289024 54.364765 90.727257 -6.336084 35.602551 -8.534408 -12.637552 50.843609 10.709475 8.034227 -8.126153 8.407293 -5.997871 -1.888443 -21.279509 13.792117 1.955583 10.543083 -12.248070 14.708454 8.575060 5.996653 1.914114 -24.130415 -16.462702 -3.725376 
1.276296 52.712536 7.795814 -3.662794 1.441562 -4.378365 25.421127 -4.304041 1.585704 -22.159222 -0.448165 0.785450 -10.775801 -6.365520 -2.390588 29.632143 11.464968 -3.529402 2.424333 -4.683778 1.783845 -67.007286 -30.114840 5.232551 -44.457336 6.217045 5.993408 8.524705 12.647240 -58.518929 -2.738486 -1.140572 2.095526 64.666664 35.663651 54.288841 90.761360 -6.360520 35.622627 -8.534408 -12.637552 50.247906 10.650057 8.092024 -8.067292 8.469340 -5.994017 -1.913962 -21.287037 13.783566 1.938237 10.534624 -12.182216 14.788393 8.552604 5.994692 1.911253 -24.070179 -16.493811 -3.701364 
1.278402 52.712242 7.790102 -3.662489 1.456689 -4.447830 25.421989 -4.355083 1.603804 -22.110432 -0.419095 0.793390 -10.824994 -6.407943 -2.336219 29.600203 11.657472 -3.388227 2.424333 -4.683778 1.783845 -67.096275 -30.093977 5.479016 -44.395546 6.198255 5.977584 8.524705 12.647240 -57.532604 -2.738486 -1.140572 2.095526 64.455338 36.077145 54.248291 90.814659 -6.395444 35.654289 -8.534408 -12.637552 49.818218 10.594606 8.055174 -8.013639 8.606479 -6.002170 -1.936507 -21.366911 13.754738 1.965206 10.545471 -12.223966 14.861738 8.464489 5.984852 1.883291 -24.016706 -16.528490 -3.693041 
1.281108 52.712242 7.785589 -3.662217 1.405466 -4.483695 25.400770 -4.308534 1.647127 -22.071329 -0.448899 0.794516 -10.961120 -6.378377 -2.293595 29.711756 11.771123 -3.277464 2.424333 -4.683778 1.783845 -67.126457 -30.113058 5.655571 -44.304062 6.175726 5.940182 8.524705 12.647240 -56.858772 -2.738486 -1.140572 2.095526 64.323624 36.460091 54.165611 90.868309 -6.430742 35.694645 -8.534408 -12.637552 49.368999 10.523228 8.091896 -7.997283 8.710703 -6.005958 -1.945475 -21.372612 13.738112 1.979165 10.593304 -12.201397 14.893167 8.374894 5.993153 1.875832 -24.014458 -16.570944 -3.709814 
1.279003 52.713444 7.777169 -3.652359 1.328264 -4.478480 25.397697 -4.228050 1.705870 -22.022455 -0.478377 0.805275 -11.135908 -6.305782 -2.274158 29.779652 11.848553 -3.205987 2.424333 -4.683778 1.783845 -67.128029 -30.191172 5.694623 -44.221367 6.145381 5.908241 8.524705 12.647240 -56.751350 -2.738486 -1.140572 2.095526 64.213150 36.891541 54.021072 90.946503 -6.483920 35.736366 -8.534408 -12.637552 49.085796 10.446049 8.170530 -7.985172 8.802190 -5.992672 -1.963347 -21.379606 13.797475 1.972506 10.644611 -12.117970 14.912709 8.279336 5.992368 1.866946 -23.974466 -16.602858 -3.698348 
1.278101 52.715847 7.770554 -3.632882 1.329789 -4.478027 25.377888 -4.238773 1.702633 -21.924763 -0.509015 0.805796 -11.222950 -6.266641 -2.250244 29.625204 12.017126 -3.133080 2.424333 -4.683778 1.783845 -67.130180 -30.298576 5.513986 -44.190487 6.135870 5.900416 8.524705 12.647240 -57.268932 -2.738486 -1.140572 2.095526 64.113907 37.371647 53.886726 91.043755 -6.548187 35.798466 -8.534408 -12.637552 48.978374 10.338144 8.170030 -8.004507 8.948789 -6.002347 -1.977154 -21.460161 13.763711 2.007519 10.703165 -12.128807 14.889594 8.148535 5.989646 1.855386 -23.914780 -16.586018 -3.676870 
